#!OML:ASF E:\Style4\Style4.ASF
:FULLY-SPECIFIED
:DEGREES
2224
root 0.706554 17.3578 -2.69075 9.28462 -9.58067 1.51719
lowerback 19.736 3.70144 -2.41318
upperback 11.4635 4.32582 1.01005
thorax 1.11616 1.97919 1.63454
lowerneck 3.98089 -9.2313 -7.37982
upperneck -1.18092 -12.5079 9.57448
head 0.0960443 -6.35197 4.46995
rclavicle 8.46823e-014 -3.57812e-014
rhumerus -30.0336 59.9028 -75.3823
rradius 84.7485
rwrist -40.6002
rhand -15.3107 11.9934
rfingers 7.12502
rthumb 10.865 -17.7056
lclavicle 8.46823e-014 -3.57812e-014
lhumerus 34.6117 -20.9451 18.9541
lradius 69.5561
lwrist 18.1669
lhand 5.52726 28.2071
lfingers 7.12502
lthumb 30.8728 55.6328
rfemur -36.3368 3.5702 15.5859
rtibia 44.123
rfoot -16.7584 -8.6616
rtoes -10.4293
lfemur -33.4566 2.35288 -22.9057
ltibia 44.7496
lfoot -20.8799 12.34
ltoes -14.5315
2225
root 0.71855 17.3149 -2.69673 9.08714 -9.3785 1.61799
lowerback 19.7561 3.66687 -2.64084
upperback 11.5993 4.24419 0.866072
thorax 1.25573 1.92993 1.62946
lowerneck 3.84444 -9.20457 -7.19157
upperneck -1.19763 -12.455 10.0094
head 0.128832 -6.33016 4.58022
rclavicle 5.96354e-015 -6.36111e-015
rhumerus -30.8534 60.3183 -74.463
rradius 85.5639
rwrist -41.7656
rhand -14.7625 11.8948
rfingers 7.12502
rthumb 11.3938 -17.7756
lclavicle 5.96354e-015 -6.36111e-015
lhumerus 35.8158 -19.8623 21.737
lradius 68.7244
lwrist 16.0904
lhand 5.18645 27.7852
lfingers 7.12502
lthumb 30.5478 55.2718
rfemur -36.6568 3.43127 15.4511
rtibia 45.0494
rfoot -17.1141 -8.70805
rtoes -10.3529
lfemur -33.7584 2.49854 -23.0938
ltibia 45.5465
lfoot -21.1206 12.0453
ltoes -14.6745
2226
root 0.730692 17.2704 -2.70166 8.84861 -9.15773 1.61612
lowerback 19.8175 3.62761 -2.77363
upperback 11.7439 4.17121 0.787645
thorax 1.38529 1.88694 1.63689
lowerneck 3.66041 -9.16851 -7.10408
upperneck -1.15875 -12.3965 10.4445
head 0.194639 -6.3031 4.70508
rclavicle -2.54444e-014 1.11319e-014
rhumerus -31.652 60.7643 -73.4751
rradius 86.2799
rwrist -42.857
rhand -14.3523 11.9183
rfingers 7.12502
rthumb 11.7894 -17.7299
lclavicle -2.54444e-014 1.11319e-014
lhumerus 36.9947 -18.8549 24.9247
lradius 67.745
lwrist 14.2215
lhand 4.80409 27.0902
lfingers 7.12502
lthumb 30.1831 54.6442
rfemur -36.889 3.28927 15.43
rtibia 45.9428
rfoot -17.4984 -8.74018
rtoes -9.93116
lfemur -33.9877 2.61373 -23.1521
ltibia 46.3159
lfoot -21.4111 11.6927
ltoes -14.341
2227
root 0.744621 17.2262 -2.70892 8.55482 -8.89435 1.62146
lowerback 19.9937 3.55397 -2.86944
upperback 11.8633 4.05573 0.719491
thorax 1.4338 1.82531 1.63555
lowerneck 3.44149 -9.11476 -7.05343
upperneck -1.08273 -12.314 11.2088
head 0.270294 -6.263 4.44712
rclavicle -5.32743e-014 6.36111e-015
rhumerus -32.3968 61.3253 -72.4577
rradius 86.8774
rwrist -43.8525
rhand -14.0926 12.1155
rfingers 7.12502
rthumb 12.0398 -17.5182
lclavicle -5.32743e-014 6.36111e-015
lhumerus 38.0931 -17.9326 28.3997
lradius 66.6662
lwrist 12.585
lhand 4.39258 26.3608
lfingers 7.12502
lthumb 29.7904 53.9858
rfemur -37.0336 3.08306 15.4088
rtibia 46.8096
rfoot -17.9271 -8.73576
rtoes -9.21377
lfemur -34.1728 2.72365 -23.2229
ltibia 47.089
lfoot -21.7262 11.4053
ltoes -14.6881
2228
root 0.76029 17.1805 -2.71627 8.32622 -8.65758 1.63605
lowerback 20.103 3.4533 -2.99427
upperback 11.9544 3.90288 0.624054
thorax 1.48706 1.74474 1.63123
lowerneck 3.29049 -9.0269 -7.01712
upperneck -1.05639 -12.1921 11.6459
head 0.316873 -6.20311 4.56435
rclavicle -2.78299e-015 8.34896e-015
rhumerus -32.9419 62.0285 -71.3474
rradius 87.3898
rwrist -44.7749
rhand -13.6738 12.1328
rfingers 7.12502
rthumb 12.4436 -17.4767
lclavicle -2.78299e-015 8.34896e-015
lhumerus 38.873 -17.0736 32.0663
lradius 65.7363
lwrist 11.2681
lhand 3.95746 26.022
lfingers 7.12502
lthumb 29.3751 53.7207
rfemur -37.2664 2.87826 15.3689
rtibia 47.6706
rfoot -18.2975 -8.72417
rtoes -8.8978
lfemur -34.4521 2.92739 -23.3359
ltibia 47.8862
lfoot -21.9929 11.1455
ltoes -15.3903
2229
root 0.776782 17.1327 -2.72441 8.1178 -8.42537 1.53998
lowerback 20.0865 3.33428 -3.06586
upperback 12.1129 3.74115 0.590711
thorax 1.67667 1.65736 1.67283
lowerneck 3.18108 -8.91378 -7.01535
upperneck -1.1826 -12.0293 12.0878
head 0.310065 -6.12697 4.69661
rclavicle -1.47101e-014 2.38542e-015
rhumerus -33.1057 62.8325 -69.9008
rradius 87.8247
rwrist -45.6138
rhand -13.178 12.0596
rfingers 7.12502
rthumb 12.9216 -17.5204
lclavicle -1.47101e-014 2.38542e-015
lhumerus 39.468 -16.2021 35.9449
lradius 64.858
lwrist 10.3913
lhand 3.42552 25.7736
lfingers 7.12502
lthumb 28.8671 53.5601
rfemur -37.507 2.72692 15.4529
rtibia 48.5197
rfoot -18.5643 -8.81836
rtoes -9.20152
lfemur -34.745 3.09447 -23.3183
ltibia 48.6947
lfoot -22.2238 10.8336
ltoes -15.4013
2230
root 0.79301 17.0852 -2.73072 7.88719 -8.20247 1.46281
lowerback 20.0464 3.30526 -2.9861
upperback 12.2895 3.7203 0.497266
thorax 1.90317 1.6504 1.54089
lowerneck 3.17626 -8.91278 -6.85955
upperneck -1.40249 -12.0062 12.5966
head 0.267085 -6.12749 4.82973
rclavicle -3.49861e-014 1.90833e-014
rhumerus -33.4066 63.2527 -68.5872
rradius 88.1612
rwrist -46.4003
rhand -12.3599 12.0115
rfingers 7.12502
rthumb 13.7101 -17.5169
lclavicle -3.49861e-014 1.90833e-014
lhumerus 40.2895 -15.6499 39.9546
lradius 64.0009
lwrist 10.0321
lhand 2.66611 25.4042
lfingers 7.12502
lthumb 28.1415 53.3124
rfemur -37.7086 2.58912 15.5184
rtibia 49.3705
rfoot -18.7958 -8.99167
rtoes -9.78188
lfemur -34.986 3.26211 -23.3146
ltibia 49.4775
lfoot -22.5191 10.4651
ltoes -15.1699
